<svg id="visual" xmlns="http://www.w3.org/2000/svg" xmlns:xlink="http://www.w3.org/1999/xlink" version="1.1" viewBox="0 498 900 103" preserveAspectRatio="none" width="100%" height="200px"><path d="M0 498L25 501.2C50 504.3 100 510.7 150 517.5C200 524.3 250 531.7 300 528.3C350 525 400 511 450 505.5C500 500 550 503 600 509.2C650 515.3 700 524.7 750 530.2C800 535.7 850 537.3 875 538.2L900 539L900 601L875 601C850 601 800 601 750 601C700 601 650 601 600 601C550 601 500 601 450 601C400 601 350 601 300 601C250 601 200 601 150 601C100 601 50 601 25 601L0 601Z" fill="#766095"></path><path d="M0 552L25 551C50 550 100 548 150 546C200 544 250 542 300 537.2C350 532.3 400 524.7 450 525C500 525.3 550 533.7 600 534.8C650 536 700 530 750 529C800 528 850 532 875 534L900 536L900 601L875 601C850 601 800 601 750 601C700 601 650 601 600 601C550 601 500 601 450 601C400 601 350 601 300 601C250 601 200 601 150 601C100 601 50 601 25 601L0 601Z" fill="#555683"></path><path d="M0 550L25 550.5C50 551 100 552 150 555.3C200 558.7 250 564.3 300 563.2C350 562 400 554 450 549.2C500 544.3 550 542.7 600 541.8C650 541 700 541 750 541.2C800 541.3 850 541.7 875 541.8L900 542L900 601L875 601C850 601 800 601 750 601C700 601 650 601 600 601C550 601 500 601 450 601C400 601 350 601 300 601C250 601 200 601 150 601C100 601 50 601 25 601L0 601Z" fill="#394a6c"></path><path d="M0 580L25 578.5C50 577 100 574 150 574.7C200 575.3 250 579.7 300 579.5C350 579.3 400 574.7 450 574.8C500 575 550 580 600 582.7C650 585.3 700 585.7 750 582.2C800 578.7 850 571.3 875 567.7L900 564L900 601L875 601C850 601 800 601 750 601C700 601 650 601 600 601C550 601 500 601 450 601C400 601 350 601 300 601C250 601 200 601 150 601C100 601 50 601 25 601L0 601Z" fill="#243c54"></path></svg>